<?xml version="1.0" encoding="utf-8"?>
<!-- Generator: Adobe Illustrator 16.0.0, SVG Export Plug-In . SVG Version: 6.00 Build 0)  -->
<!DOCTYPE svg PUBLIC "-//W3C//DTD SVG 1.1//EN" "http://www.w3.org/Graphics/SVG/1.1/DTD/svg11.dtd">
<svg version="1.1" id="Ebene_1" xmlns="http://www.w3.org/2000/svg" xmlns:xlink="http://www.w3.org/1999/xlink" x="0px" y="0px"
	 width="595.28px" height="841.89px" viewBox="0 0 595.28 841.89" enable-background="new 0 0 595.28 841.89" xml:space="preserve">
<g>
	<g>
		<g>
			
				<linearGradient id="SVGID_1_" gradientUnits="userSpaceOnUse" x1="-753.6709" y1="559.3262" x2="-753.6709" y2="552.6084" gradientTransform="matrix(-0.998 -0.0634 -0.0634 0.998 -376.7549 -14.7925)">
				<stop  offset="0" style="stop-color:#4C6D76"/>
				<stop  offset="1" style="stop-color:#041D23"/>
			</linearGradient>
			<path fill="url(#SVGID_1_)" d="M354.945,583.604l-0.164,2.576c0,0-13.745,3.725-28.857-2.695l0.163-2.578l8.196-2.353
				L354.945,583.604z"/>
			
				<linearGradient id="SVGID_2_" gradientUnits="userSpaceOnUse" x1="-755.2305" y1="542.3203" x2="-751.2151" y2="558.6706" gradientTransform="matrix(-0.998 -0.0634 -0.0634 0.998 -376.7549 -14.7925)">
				<stop  offset="0" style="stop-color:#C59ECA"/>
				<stop  offset="1" style="stop-color:#625D75"/>
			</linearGradient>
			<path fill="url(#SVGID_2_)" d="M340.824,570.633c0,0,8.027,4.822,14.121,12.971c0,0-14.283,3.117-28.877-2.409
				c0,0-0.105-2.882,1.313-7.103L340.824,570.633z"/>
			<g>
				
					<linearGradient id="SVGID_3_" gradientUnits="userSpaceOnUse" x1="-739.3062" y1="562.3486" x2="-736.7246" y2="570.2009" gradientTransform="matrix(-0.9997 -0.0231 -0.0232 0.9997 -379.8228 -7.2129)">
					<stop  offset="0" style="stop-color:#C59ECA"/>
					<stop  offset="1" style="stop-color:#625D75"/>
				</linearGradient>
				<path fill="url(#SVGID_3_)" d="M338.286,577.619c1.415-1.97,4.142-3.818,6.662-3.194c0.646,0.159,0.944-0.828,0.297-0.989
					c-3.005-0.743-6.138,1.273-7.84,3.644C337.016,577.621,337.899,578.158,338.286,577.619z M340.226,579.152
					c-0.39,0.543,0.494,1.079,0.882,0.541c1.414-1.971,4.141-3.818,6.662-3.195c0.646,0.16,0.943-0.828,0.298-0.988
					C345.061,574.766,341.928,576.783,340.226,579.152z M342.903,581.223c-0.388,0.543,0.494,1.078,0.881,0.541
					c1.415-1.971,4.142-3.818,6.663-3.196c0.646,0.16,0.945-0.828,0.297-0.987C347.739,576.836,344.605,578.854,342.903,581.223z"/>
				
					<linearGradient id="SVGID_4_" gradientUnits="userSpaceOnUse" x1="-752.3892" y1="549.4014" x2="-758.8443" y2="543.0891" gradientTransform="matrix(-0.998 -0.0634 -0.0634 0.998 -376.7549 -14.7925)">
					<stop  offset="0" style="stop-color:#A3ADB1"/>
					<stop  offset="1" style="stop-color:#D4E5DE"/>
				</linearGradient>
				<path fill="url(#SVGID_4_)" d="M338.446,576.637c1.494-1.912,4.292-3.648,6.786-2.924c0.639,0.186,0.977-0.79,0.337-0.976
					c-2.974-0.865-6.187,1.024-7.981,3.323C337.178,576.586,338.037,577.158,338.446,576.637z M340.324,578.245
					c-0.412,0.526,0.449,1.099,0.857,0.577c1.492-1.912,4.292-3.649,6.787-2.925c0.638,0.186,0.976-0.789,0.336-0.975
					C345.332,574.059,342.119,575.947,340.324,578.245z M342.916,580.423c-0.41,0.525,0.449,1.098,0.857,0.575
					c1.494-1.91,4.293-3.647,6.788-2.924c0.638,0.185,0.976-0.789,0.335-0.975C347.924,576.234,344.713,578.123,342.916,580.423z"/>
			</g>
		</g>
		<g>
			<linearGradient id="SVGID_5_" gradientUnits="userSpaceOnUse" x1="261.5347" y1="589.5059" x2="261.5347" y2="582.7881">
				<stop  offset="0" style="stop-color:#4C6D76"/>
				<stop  offset="1" style="stop-color:#041D23"/>
			</linearGradient>
			<path fill="url(#SVGID_5_)" d="M247.049,580.976v2.582c0,0,13.481,4.589,28.971-0.86v-2.582l-8.031-2.868L247.049,580.976z"/>
			<linearGradient id="SVGID_6_" gradientUnits="userSpaceOnUse" x1="259.9766" y1="572.499" x2="263.9916" y2="588.8483">
				<stop  offset="0" style="stop-color:#C59ECA"/>
				<stop  offset="1" style="stop-color:#625D75"/>
			</linearGradient>
			<path fill="url(#SVGID_6_)" d="M261.965,568.928c0,0-8.318,4.303-14.916,12.048c0,0,14.056,4.018,28.972-0.573
				c0,0,0.287-2.869-0.86-7.172L261.965,568.928z"/>
			<g>
				
					<linearGradient id="SVGID_7_" gradientUnits="userSpaceOnUse" x1="276.459" y1="551.335" x2="279.0403" y2="559.1863" gradientTransform="matrix(0.9992 0.0403 -0.0403 0.9992 2.4775 7.9604)">
					<stop  offset="0" style="stop-color:#C59ECA"/>
					<stop  offset="1" style="stop-color:#625D75"/>
				</linearGradient>
				<path fill="url(#SVGID_7_)" d="M264.968,575.576c-1.548-2.472-4.547-4.684-7.594-4.132c-0.656,0.118-0.42,1.124,0.234,1.006
					c2.555-0.462,5.159,1.555,6.447,3.61C264.406,576.623,265.321,576.143,264.968,575.576z M254.426,573.335
					c-0.655,0.118-0.42,1.124,0.234,1.005c2.556-0.462,5.161,1.556,6.447,3.612c0.352,0.561,1.267,0.081,0.913-0.485
					C260.473,574.994,257.474,572.783,254.426,573.335z M251.623,575.23c-0.656,0.119-0.421,1.124,0.234,1.006
					c2.555-0.461,5.16,1.555,6.447,3.611c0.351,0.561,1.266,0.082,0.913-0.484C257.669,576.892,254.669,574.68,251.623,575.23z"/>
				<linearGradient id="SVGID_8_" gradientUnits="userSpaceOnUse" x1="262.8159" y1="579.5811" x2="256.3601" y2="573.2682">
					<stop  offset="0" style="stop-color:#A3ADB1"/>
					<stop  offset="1" style="stop-color:#D4E5DE"/>
				</linearGradient>
				<path fill="url(#SVGID_8_)" d="M264.849,574.549c-1.646-2.408-4.732-4.497-7.754-3.823c-0.65,0.145-0.375,1.14,0.274,0.995
					c2.535-0.564,5.219,1.346,6.587,3.35C264.331,575.615,265.226,575.1,264.849,574.549z M254.227,572.734
					c-0.65,0.144-0.375,1.139,0.274,0.994c2.536-0.565,5.219,1.346,6.587,3.349c0.374,0.546,1.27,0.03,0.893-0.521
					C260.334,574.148,257.249,572.059,254.227,572.734z M251.501,574.74c-0.65,0.146-0.375,1.141,0.274,0.996
					c2.535-0.564,5.218,1.346,6.587,3.349c0.374,0.546,1.27,0.03,0.893-0.521C257.609,576.156,254.523,574.066,251.501,574.74z"/>
			</g>
		</g>
		<g>
			<linearGradient id="SVGID_9_" gradientUnits="userSpaceOnUse" x1="301.5889" y1="542.1553" x2="301.5889" y2="471.7786">
				<stop  offset="0" style="stop-color:#4C6D76"/>
				<stop  offset="1" style="stop-color:#041D23"/>
			</linearGradient>
			<path fill="url(#SVGID_9_)" d="M348.995,500.976c-1.086-6.231-4.606-12.161-9.114-16.691c-4.87-4.895-11.291-8.142-17.688-10.552
				c-12.39-4.666-25.668-3.986-38.075,0.225c-11.585,3.934-22.216,11.559-27.315,22.972c-6.024,13.483-1.435,20.366,1.147,24.382
				c2.582,4.018,6.311,4.018,6.311,4.018s-0.854-7.411-0.86-7.459c-0.448-3.885-2.58-7.889-1.036-11.756
				c1.416-3.542,5.812-7.614,9.641-8.037c-3.068,11.563-4.589,23.809-4.589,23.809l3.443,10.9c0,0,18.932,3.442,21.226,2.869
				s23.522-2.869,23.522-2.869l18.358-6.885c0,0,0-9.179-6.311-33.848c-0.034-0.132-0.074-0.254-0.109-0.385
				c2.61,2.045,7.654,6.527,9.432,11.859c2.438,7.314-1.865,14.485-1.865,14.485s7.596,3.439,7.602,3.442
				c0.784,0.355,4.271-6.852,4.714-7.801C349.353,509.516,349.729,505.178,348.995,500.976z"/>
			<linearGradient id="SVGID_10_" gradientUnits="userSpaceOnUse" x1="301.627" y1="542.1504" x2="301.627" y2="471.7808">
				<stop  offset="0" style="stop-color:#C59ECA"/>
				<stop  offset="1" style="stop-color:#625D75"/>
			</linearGradient>
			<path fill="url(#SVGID_10_)" d="M292.084,535.654c0.854-0.214,4.328-0.665,8.354-1.148h-19.367
				C285.951,535.266,290.972,535.932,292.084,535.654z M256.425,518.824c0.524,0.937,1.056,1.762,1.523,2.486
				c0.233,0.363,0.482,0.657,0.73,0.957h5.228c-0.143-1.241-0.296-2.572-0.397-3.443H256.425z M342.713,521.455
				c0.336,0.152,1.172-1.09,2.049-2.631h-7.857C339.15,519.842,342.709,521.453,342.713,521.455z M261.971,510.984h-8.048
				c0.115,1.254,0.345,2.395,0.646,3.442h8.136C262.421,513.28,262.142,512.132,261.971,510.984z M336.676,514.427h10.38
				c0.175-0.356,0.308-0.636,0.371-0.772c0.41-0.881,0.736-1.773,1.011-2.67h-10.933
				C337.311,512.258,337.008,513.427,336.676,514.427z M349.259,503.145h-12.44c0.047,0.129,0.115,0.252,0.158,0.383
				c0.344,1.03,0.542,2.054,0.648,3.059h11.641C349.354,505.438,349.351,504.289,349.259,503.145z M254,506.586h8.228
				c0.051-0.157,0.073-0.314,0.135-0.473c0.392-0.98,1.027-1.996,1.801-2.969h-9.532C254.331,504.357,254.124,505.504,254,506.586z
				 M328.466,495.303h-70.873c-0.273,0.537-0.544,1.072-0.792,1.626c-0.279,0.625-0.512,1.22-0.748,1.816h73.245
				C329.035,497.635,328.76,496.493,328.466,495.303z M347.301,495.303h-15.727c0.992,1.026,1.975,2.184,2.869,3.442h14.055
				C348.183,497.577,347.769,496.432,347.301,495.303z M342.676,487.463h-79.719c-0.971,1.094-1.887,2.238-2.731,3.441h84.835
				C344.332,489.711,343.538,488.561,342.676,487.463z M334.107,479.623h-61.863c-1.646,1.052-3.224,2.199-4.719,3.441h71.041
				C337.172,481.809,335.68,480.662,334.107,479.623z M322.192,473.732c-2.157-0.813-4.344-1.453-6.546-1.951h-23.529
				c-2.694,0.559-5.367,1.282-8,2.176c-1.129,0.384-2.245,0.813-3.353,1.268h45.085
				C324.637,474.696,323.415,474.193,322.192,473.732z M268.542,514.427h64.023c-0.186-1.071-0.387-2.2-0.623-3.442h-62.791
				C268.926,512.199,268.722,513.356,268.542,514.427z M267.842,518.824c-0.283,1.911-0.427,3.061-0.427,3.061l0.122,0.383h66.156
				c-0.101-0.944-0.241-2.087-0.434-3.443H267.842z M270.012,530.107h52.734l9.179-3.442h-63L270.012,530.107z M270.764,503.145
				c-0.265,1.162-0.518,2.316-0.751,3.441h61.043c-0.229-1.094-0.478-2.241-0.744-3.441H270.764z"/>
			<g>
				<linearGradient id="SVGID_11_" gradientUnits="userSpaceOnUse" x1="299.8418" y1="515.0029" x2="299.8418" y2="490.6202">
					<stop  offset="0" style="stop-color:#4C6D76"/>
					<stop  offset="1" style="stop-color:#041D23"/>
				</linearGradient>
				<path fill="url(#SVGID_11_)" d="M295.186,498.948c1.475,1.349,3.729,1.366,5.223,0.042c9.156-8.109,12.967-14.775,17.002-21.832
					l1.918-3.327c0.174-0.302,0.293-0.624,0.381-0.954c-11.668-3.701-24.01-2.852-35.592,1.08c-1.398,0.475-2.781,1.006-4.143,1.588
					C282.384,487.096,294.652,498.46,295.186,498.948z"/>
				<linearGradient id="SVGID_12_" gradientUnits="userSpaceOnUse" x1="299.8047" y1="502.9521" x2="299.8047" y2="478.8568">
					<stop  offset="0" style="stop-color:#716A72"/>
					<stop  offset="0.1523" style="stop-color:#787279"/>
					<stop  offset="0.4056" style="stop-color:#8B8A8E"/>
					<stop  offset="0.7264" style="stop-color:#AEB5B4"/>
					<stop  offset="1" style="stop-color:#D4E5DE"/>
				</linearGradient>
				<path fill="url(#SVGID_12_)" d="M297.821,496.068c10.039-8.893,13.195-15.776,18.14-24.211
					c-10.54-2.455-21.495-1.414-31.844,2.1c-0.156,0.054-0.311,0.115-0.467,0.17C285.454,484.75,297.821,496.068,297.821,496.068z"
					/>
				<linearGradient id="SVGID_13_" gradientUnits="userSpaceOnUse" x1="299.5459" y1="500.7539" x2="299.5459" y2="478.3727">
					<stop  offset="0" style="stop-color:#A3ADB1"/>
					<stop  offset="1" style="stop-color:#D4E5DE"/>
				</linearGradient>
				<path fill="url(#SVGID_13_)" d="M285.446,474.907c1.995,7.448,9.726,15.117,12.399,17.575
					c7.739-6.584,11.098-11.976,14.905-18.16c0,0,0.451-0.727,0.896-1.441C304.744,471.315,295.071,472.005,285.446,474.907z"/>
			</g>
		</g>
		<g>
			<linearGradient id="SVGID_14_" gradientUnits="userSpaceOnUse" x1="302.124" y1="494.9209" x2="302.124" y2="564.3376">
				<stop  offset="0" style="stop-color:#A3ADB1"/>
				<stop  offset="1" style="stop-color:#D4E5DE"/>
			</linearGradient>
			<path fill="url(#SVGID_14_)" d="M274.587,527.621c0,0,17.21,8.894,49.911-1.433l8.893,0.86l1.721,2.582
				c0,0-1.146,16.063,7.172,41.88c0,0-6.599,3.729-14.916,2.868L317.9,545.98c0,0-18.646,3.729-37.003-1.435
				c0,0-1.148,15.778-6.024,28.686c0,0-6.024,0.86-12.908-4.016c0,0,6.274-26.391,1.398-39.3l2.043-3.728l3.729-1.147
				L274.587,527.621z"/>
			<linearGradient id="SVGID_15_" gradientUnits="userSpaceOnUse" x1="269.9717" y1="540.959" x2="269.5414" y2="552.7206">
				<stop  offset="0" style="stop-color:#A3ADB1"/>
				<stop  offset="1" style="stop-color:#D4E5DE"/>
			</linearGradient>
			<path fill="url(#SVGID_15_)" d="M272.703,529.39l0.539,1.487C273.388,530.291,273.224,529.719,272.703,529.39z M273.438,532.068
				l0.43,1.865C274.165,533.293,274.122,532.342,273.438,532.068z M273.94,535.152l-0.287,1.434
				C273.981,536.152,274.442,535.941,273.94,535.152z M272.866,537.375l-1.292,0.431
				C272.05,537.835,272.435,537.948,272.866,537.375z M270.14,537.806l-1.721-0.286C269.351,538.021,269.638,537.948,270.14,537.806
				z M267.558,537.375l-1.434-0.574C266.626,537.375,267.042,537.313,267.558,537.375z"/>
			
				<linearGradient id="SVGID_16_" gradientUnits="userSpaceOnUse" x1="-632.9878" y1="541.8613" x2="-633.4531" y2="554.5777" gradientTransform="matrix(-1.0695 0 0 1 -349.7002 0)">
				<stop  offset="0" style="stop-color:#A3ADB1"/>
				<stop  offset="1" style="stop-color:#D4E5DE"/>
			</linearGradient>
			<path fill="url(#SVGID_16_)" d="M323.021,529.39l-0.854,1.599C321.934,530.359,322.195,529.744,323.021,529.39z M321.854,532.271
				l-0.685,2.006C320.701,533.589,320.77,532.564,321.854,532.271z M321.057,535.588l0.455,1.545
				C320.992,536.665,320.26,536.438,321.057,535.588z M322.763,537.98l2.05,0.463C324.057,538.475,323.446,538.596,322.763,537.98z
				 M327.088,538.443l2.732-0.309C328.341,538.674,327.884,538.596,327.088,538.443z M331.185,537.98l2.277-0.617
				C332.664,537.98,332.004,537.912,331.185,537.98z"/>
			<linearGradient id="SVGID_17_" gradientUnits="userSpaceOnUse" x1="326.1475" y1="531.6221" x2="326.5776" y2="540.5477">
				<stop  offset="0" style="stop-color:#8D9A9F"/>
				<stop  offset="1" style="stop-color:#D4E5DE"/>
			</linearGradient>
			<path fill="url(#SVGID_17_)" d="M318.115,530.132c0,0-0.322,1.183,1.506,0.646c1.83-0.537,3.551-2.904,6.67-2.475
				c3.119,0.431,7.745,1.184,7.745,1.184l-1.937-2.044c0,0-3.119-1.29-4.518-1.29s-3.873-0.108-5.057,0.215
				C321.343,526.689,318.115,530.132,318.115,530.132z"/>
			<linearGradient id="SVGID_18_" gradientUnits="userSpaceOnUse" x1="271.5586" y1="535.8691" x2="272.419" y2="552.2177">
				<stop  offset="0" style="stop-color:#8D9A9F"/>
				<stop  offset="1" style="stop-color:#D4E5DE"/>
			</linearGradient>
			<path fill="url(#SVGID_18_)" d="M266.698,528.733c0,0,2.689-0.646,4.626,0.108c1.936,0.752,2.151,2.15,3.012,2.258
				c0.86,0.108,2.366-0.43,0.538-3.012s-4.41-2.797-4.948-2.689C269.387,525.506,266.698,528.733,266.698,528.733z"/>
			<linearGradient id="SVGID_19_" gradientUnits="userSpaceOnUse" x1="302.3652" y1="538.8096" x2="302.3652" y2="580.118">
				<stop  offset="0" style="stop-color:#A3ADB1"/>
				<stop  offset="1" style="stop-color:#D4E5DE"/>
			</linearGradient>
			<path fill="url(#SVGID_19_)" d="M274.873,573.231c4.875-12.907,6.024-28.686,6.024-28.686
				c18.358,5.163,37.003,1.435,37.003,1.435l9.467,28.398c2.209,0.229,4.291,0.129,6.166-0.135
				c-0.052-0.051-0.088-0.101-0.143-0.152c-4.016-3.729-12.048-29.832-12.048-29.832l2.295-2.295c0,0-16.638,3.441-30.119,2.869
				c-13.481-0.573-20.653-5.164-20.653-5.164l2.868,2.869c1.905,11.973-3.931,28.84-4.536,30.541
				C273.446,573.43,274.873,573.231,274.873,573.231z"/>
			<linearGradient id="SVGID_20_" gradientUnits="userSpaceOnUse" x1="293.9395" y1="542.1133" x2="294.3697" y2="552.8695">
				<stop  offset="0" style="stop-color:#A3ADB1"/>
				<stop  offset="1" style="stop-color:#D4E5DE"/>
			</linearGradient>
			<path fill="url(#SVGID_20_)" d="M293.519,544.834c0,0-2.08-6.527-1.004-11.69l2.582-0.215l-1.721,0.86
				c0,0-0.645,6.455,1.506,10.972L293.519,544.834z"/>
		</g>
		<path fill="#C59ECA" d="M342.6,572.001c-0.699-1.577-0.368-4.165-1.611-5.344c-1.492-1.411-4.213-0.415-5.174,1.172
			c-1.043,1.716-0.414,4.304-0.076,6.169c0,0,3.992-0.316,6.213-1.395L342.6,572.001z"/>
		<path fill="#C59ECA" d="M261.138,569.23c0.952-1.438,1.058-4.045,2.48-5c1.707-1.145,4.223,0.291,4.907,2.016
			c0.742,1.867-0.31,4.314-0.954,6.096c0,0-3.884-0.976-5.893-2.409L261.138,569.23z"/>
		<linearGradient id="SVGID_21_" gradientUnits="userSpaceOnUse" x1="331.0273" y1="523.376" x2="336.7639" y2="513.0491">
			<stop  offset="0" style="stop-color:#FBC9A2"/>
			<stop  offset="1" style="stop-color:#E18254"/>
		</linearGradient>
		<path fill="url(#SVGID_21_)" d="M342.856,521.311l-7.745-3.441l-2.582,3.012c0,0-7.744-1.291-10.756,3.873
			c0,0-6.023,3.873-4.303,5.162c1.721,1.292,3.872-2.581,7.744-2.15c3.873,0.43,9.896,2.15,9.896,2.15
			S340.705,526.044,342.856,521.311z"/>
		<linearGradient id="SVGID_22_" gradientUnits="userSpaceOnUse" x1="265.8145" y1="522.6416" x2="262.373" y2="514.0379">
			<stop  offset="0" style="stop-color:#FBC9A2"/>
			<stop  offset="1" style="stop-color:#E18254"/>
		</linearGradient>
		<path fill="url(#SVGID_22_)" d="M258.07,521.311l5.291-3.441l1.764,3.012c0,0,5.291-1.291,7.349,3.873
			c0,0,4.115,3.873,2.939,5.162c-1.176,1.292-2.645-2.581-5.292-2.15c-2.645,0.43-6.76,2.15-6.76,2.15
			S259.54,526.044,258.07,521.311z"/>
	</g>
	<g>
		<g>
			<linearGradient id="SVGID_23_" gradientUnits="userSpaceOnUse" x1="366.9521" y1="407.2881" x2="366.9521" y2="366.4112">
				<stop  offset="0" style="stop-color:#FBC9A2"/>
				<stop  offset="1" style="stop-color:#E18254"/>
			</linearGradient>
			<path fill="url(#SVGID_23_)" d="M366.307,417.83c0,0,7.314-3.657,7.314,0s-3.873,7.96-13.338,9.682L366.307,417.83z"/>
			<linearGradient id="SVGID_24_" gradientUnits="userSpaceOnUse" x1="367.0879" y1="424.207" x2="365.0795" y2="417.8969">
				<stop  offset="0" style="stop-color:#FBC9A2"/>
				<stop  offset="1" style="stop-color:#E18254"/>
			</linearGradient>
			<path fill="url(#SVGID_24_)" d="M372.697,420.921l-0.008-0.007c0,0-4.016-5.451-10.9,5.736c-0.139,0.225-0.249,0.414-0.38,0.629
				C367.572,425.959,371.154,423.5,372.697,420.921z"/>
		</g>
		<g>
			<linearGradient id="SVGID_25_" gradientUnits="userSpaceOnUse" x1="231.6758" y1="407.2881" x2="231.6758" y2="366.4124">
				<stop  offset="0" style="stop-color:#FBC9A2"/>
				<stop  offset="1" style="stop-color:#E18254"/>
			</linearGradient>
			<path fill="url(#SVGID_25_)" d="M227.113,415.034c0,0-3.658-2.583-3.873,0.645c-0.215,3.227,4.948,9.466,12.693,11.402
				c7.745,1.937,2.366-5.594,2.366-5.594L227.113,415.034z"/>
			<linearGradient id="SVGID_26_" gradientUnits="userSpaceOnUse" x1="229.25" y1="423.1426" x2="232.6922" y2="419.9869">
				<stop  offset="0" style="stop-color:#FBC9A2"/>
				<stop  offset="1" style="stop-color:#E18254"/>
			</linearGradient>
			<path fill="url(#SVGID_26_)" d="M235.934,427.081c0.167,0.042,0.296,0.056,0.452,0.089l-5.114-5.683c0,0-7.745-8.605-6.884-2.868
				c0.036,0.239,0.079,0.466,0.117,0.702C226.468,422.354,230.583,425.743,235.934,427.081z"/>
		</g>
		<linearGradient id="SVGID_27_" gradientUnits="userSpaceOnUse" x1="297.3179" y1="430.958" x2="297.3179" y2="296.7167">
			<stop  offset="0" style="stop-color:#FBC9A2"/>
			<stop  offset="1" style="stop-color:#E18254"/>
		</linearGradient>
		<circle fill="url(#SVGID_27_)" cx="297.318" cy="384" r="77.08"/>
		<linearGradient id="SVGID_28_" gradientUnits="userSpaceOnUse" x1="319.126" y1="420.1172" x2="319.126" y2="369.9101">
			<stop  offset="0" style="stop-color:#FBC9A2"/>
			<stop  offset="1" style="stop-color:#E18254"/>
		</linearGradient>
		<path fill="url(#SVGID_28_)" d="M300.26,431.384c0,0-10.327-42.597,6.454-55.076c12.353-9.185,33.991,7.315,34.422,30.98
			L300.26,431.384z"/>
		<linearGradient id="SVGID_29_" gradientUnits="userSpaceOnUse" x1="255.3486" y1="425.8467" x2="255.3486" y2="381.9937">
			<stop  offset="0" style="stop-color:#FBC9A2"/>
			<stop  offset="1" style="stop-color:#E18254"/>
		</linearGradient>
		<path fill="url(#SVGID_29_)" d="M242.172,419.336c0,0-5.593-24.095,1.721-30.549c7.315-6.455,22.375-9.896,26.677,46.9
			L242.172,419.336z"/>
		<linearGradient id="SVGID_30_" gradientUnits="userSpaceOnUse" x1="297.3179" y1="457.6328" x2="297.3179" y2="379.7507">
			<stop  offset="0" style="stop-color:#F6A76B"/>
			<stop  offset="1" style="stop-color:#C96649"/>
		</linearGradient>
		<path fill="url(#SVGID_30_)" d="M231.845,384.518c1.159,1.28,1.959,2.915,2.083,4.664c1.266-2.401,1.951-6.611,0.512-9.387
			c1.693,1.224,2.739,3.225,3.757,4.967c0.035-2.058,0.218-4.097-0.838-5.794c1.246,0.264,2.723,0.554,4.139,0.813
			c-1.561-2.152-3.844-3.521-6.21-4.783c3.563,0.342,7.429-2.158,10.552-3.444c-1.912-0.042-3.591-1.183-5.132-2.297
			c1.12,0.202,2.355,0.316,3.548,0.168c3.475-0.43,3.909-1.291,3.909-1.291l-2.606-3.012c14.333-2.152,21.771,4.129,21.771,4.129
			c16.453-8.002,30.359-12.825,44.988-6.259c-2.872-0.372-6.872,0.178-9.271,1.721c10.377-1.155,19.512,3.577,29.264,5.102
			c-0.049,0.021-0.094,0.05-0.144,0.07c-2.046,0.834-11.333,1.02-13.146-0.398c5.539,4.331,15.996,6.175,22.812,4.209
			c-2.405,2.332-5.087,2.361-8.163,3.065c2.765,1.163,7.775,1.56,11.78,0.821c-1.335,2.599-2.459,5.604-2.618,8.493
			c1.249-1.833,2.456-3.792,4.289-4.98c-1.3,4.206-1.277,8.031,0.088,12.271c0.539-2.371,2.096-4.494,3.832-6.173
			c-1.521,4.047,1.254,9.236,3.646,13.64h17.823c1.212-5.422,1.887-11.045,1.887-16.833c0-11.927-2.712-23.22-7.549-33.3
			c-0.997-1.962-2.065-3.88-3.222-5.742c-0.626-1.142-1.303-2.257-1.963-3.38c-13.791-20.876-37.455-34.657-64.346-34.657
			c-20.532,0-39.175,8.045-52.989,21.134c-1.35,1.752-3.24,3.868-6.154,6.947l0.17,0.038c-4.183,4.813-7.764,10.148-10.658,15.883
			c-4.77,10.023-7.448,21.237-7.448,33.077c0,5.784,0.655,11.415,1.864,16.833h8.951
			C231.814,395.592,233.949,389.418,231.845,384.518z"/>
		
			<linearGradient id="SVGID_31_" gradientUnits="userSpaceOnUse" x1="427.8047" y1="395.1523" x2="426.0833" y2="380.5206" gradientTransform="matrix(0.833 0.0803 -0.0947 0.9956 -30.5444 13.5693)">
			<stop  offset="0" style="stop-color:#FBC9A2"/>
			<stop  offset="1" style="stop-color:#E18254"/>
		</linearGradient>
		<path fill="url(#SVGID_31_)" d="M270.761,440.474c0,0,0.245-0.345,0.999-0.818c2.513-1.577,7.619-6.133,34.257-0.968
			C306.018,438.688,282.72,436.439,270.761,440.474z"/>
		<linearGradient id="SVGID_32_" gradientUnits="userSpaceOnUse" x1="316.1797" y1="374.1577" x2="316.1797" y2="377.1696">
			<stop  offset="0" style="stop-color:#FBF5B7"/>
			<stop  offset="1" style="stop-color:#BF9250"/>
		</linearGradient>
		<path fill="url(#SVGID_32_)" d="M335.111,385.774c0,0-8.605-11.617-37.864-6.024c0,0,3.872-7.745,19.362-5.593
			C332.1,376.308,335.111,385.774,335.111,385.774z"/>
		<linearGradient id="SVGID_33_" gradientUnits="userSpaceOnUse" x1="245.9609" y1="384.0791" x2="247.682" y2="389.2422">
			<stop  offset="0" style="stop-color:#FBF5B7"/>
			<stop  offset="1" style="stop-color:#BF9250"/>
		</linearGradient>
		<path fill="url(#SVGID_33_)" d="M240.263,399.89c0,0,0.344-12.563,17.56-13.13c0,0-4.771-6.471-12.065-1.393
			C238.463,390.446,240.263,399.89,240.263,399.89z"/>
		<linearGradient id="SVGID_34_" gradientUnits="userSpaceOnUse" x1="278.3125" y1="447.9453" x2="331.6654" y2="447.9453">
			<stop  offset="0" style="stop-color:#E03A25"/>
			<stop  offset="1" style="stop-color:#E18254"/>
		</linearGradient>
		<path fill="url(#SVGID_34_)" d="M277.025,454.188c0,0,33.131,7.745,60.668-15.06l2.151,1.291
			C339.845,440.42,314.889,464.515,277.025,454.188z"/>
		<g>
			<g>
				<path fill="#010202" d="M300.689,431.351c0,0-3.765-38.265,14.917-44.858c19.505-6.884,25.243,20.653,25.243,20.653
					S332.96,437.189,300.689,431.351z"/>
				<path fill="#FFFFFF" d="M300.689,431.384c0,0-3.442-36.573,15.49-42.167c18.932-5.593,23.234,19.793,23.234,19.793
					S332.96,436.977,300.689,431.384z"/>
			</g>
			<g>
				<linearGradient id="SVGID_35_" gradientUnits="userSpaceOnUse" x1="321.1279" y1="426.6514" x2="321.1279" y2="392.2283">
					<stop  offset="0" style="stop-color:#AFB9BC"/>
					<stop  offset="1" style="stop-color:#00292E"/>
				</linearGradient>
				<ellipse fill="url(#SVGID_35_)" cx="321.128" cy="408.148" rx="15.274" ry="19.793"/>
				<linearGradient id="SVGID_36_" gradientUnits="userSpaceOnUse" x1="321.1279" y1="427.5107" x2="321.1279" y2="397.3918">
					<stop  offset="0" style="stop-color:#86AAB6"/>
					<stop  offset="1" style="stop-color:#041D23"/>
				</linearGradient>
				<path fill="url(#SVGID_36_)" d="M336.402,408.148c0,10.931-6.839-5.88-15.274-5.88c-8.437,0-15.274,16.811-15.274,5.88
					c0-10.931,6.838-19.792,15.274-19.792C329.563,388.356,336.402,397.218,336.402,408.148z"/>
				<linearGradient id="SVGID_37_" gradientUnits="userSpaceOnUse" x1="321.5576" y1="397.8223" x2="321.5576" y2="424.0706">
					<stop  offset="0" style="stop-color:#3F8182"/>
					<stop  offset="1" style="stop-color:#D0EAF2"/>
				</linearGradient>
				<ellipse fill="url(#SVGID_37_)" cx="321.558" cy="417.184" rx="9.099" ry="9.046"/>
				<ellipse fill="#66C0C7" cx="321.558" cy="394.811" rx="3.343" ry="3.324"/>
			</g>
		</g>
		<g>
			<g>
				<path fill="#010202" d="M270.025,435.595c0,0-1.905-32.759-14.537-36.775c-13.194-4.195-13.751,19.634-13.751,19.634
					S250.136,443.262,270.025,435.595z"/>
				<path fill="#FFFFFF" d="M270.028,435.624c0,0-1.918-31.298-14.6-34.446c-12.683-3.149-12.567,18.735-12.567,18.735
					S250.113,443.082,270.028,435.624z"/>
			</g>
			<g>
				
					<linearGradient id="SVGID_38_" gradientUnits="userSpaceOnUse" x1="-631.9678" y1="495.8984" x2="-631.9678" y2="464.6573" gradientTransform="matrix(-0.6938 0.1299 0.189 1.0118 -270.8831 16.2627)">
					<stop  offset="0" style="stop-color:#AFB9BC"/>
					<stop  offset="1" style="stop-color:#00292E"/>
				</linearGradient>
				<path fill="url(#SVGID_38_)" d="M249.974,420.457c1.875,10.038,7.044,17.493,11.547,16.649
					c4.503-0.842,6.633-9.663,4.758-19.699c-1.874-10.039-7.046-17.494-11.548-16.65S248.099,410.418,249.974,420.457z"/>
				
					<linearGradient id="SVGID_39_" gradientUnits="userSpaceOnUse" x1="-631.9678" y1="496.6816" x2="-631.9678" y2="469.3442" gradientTransform="matrix(-0.6938 0.1299 0.189 1.0118 -270.8831 16.2627)">
					<stop  offset="0" style="stop-color:#86AAB6"/>
					<stop  offset="1" style="stop-color:#041D23"/>
				</linearGradient>
				<path fill="url(#SVGID_39_)" d="M249.974,420.457c1.875,10.038,2.641-6.082,7.145-6.926c4.502-0.841,11.036,13.912,9.161,3.876
					c-1.874-10.039-7.046-17.494-11.548-16.65S248.099,410.418,249.974,420.457z"/>
				<linearGradient id="SVGID_40_" gradientUnits="userSpaceOnUse" x1="259.4458" y1="409.3833" x2="259.4458" y2="433.6325">
					<stop  offset="0" style="stop-color:#3F8182"/>
					<stop  offset="1" style="stop-color:#D0EAF2"/>
				</linearGradient>
				<path fill="url(#SVGID_40_)" d="M254.59,428.179c0.857,4.589,3.727,7.899,6.406,7.399c2.684-0.503,4.162-4.629,3.306-9.215
					c-0.856-4.588-3.724-7.901-6.407-7.399C255.214,419.468,253.733,423.594,254.59,428.179z"/>
				
					<ellipse transform="matrix(-0.9829 0.1843 -0.1843 -0.9829 581.8013 759.3726)" fill="#66C0C7" cx="255.609" cy="406.725" rx="1.815" ry="3.105"/>
			</g>
		</g>
	</g>
	<g>
		<linearGradient id="SVGID_41_" gradientUnits="userSpaceOnUse" x1="297.3174" y1="212.6631" x2="297.3174" y2="290.6929">
			<stop  offset="0" style="stop-color:#FBF5B7"/>
			<stop  offset="1" style="stop-color:#BF9250"/>
		</linearGradient>
		<path fill="url(#SVGID_41_)" d="M363.004,343.668c-4.059-7.472-8.853-14.551-14.219-21.146c-1.752-2.155-3.621-4.196-5.53-6.195
			c-1.089-1.531-2.222-2.93-3.323-4.114c-3.915-4.208-6.741-8.022-9.139-13.107c-0.158,1.462-0.489,2.731-0.567,4.019
			c-1.222-2.029-2.358-4.117-3.612-6.081c-3.459-5.411-8.032-8.78-12.196-13.523c1.8,2.494,2.068,5.369,2.719,8.116
			c-0.526-0.534-1.067-1.052-1.585-1.595c-4.82-5.056-15.855-18.396-8.9-25.871c-5.531,2.85-8.189,9.606-8.112,14.898
			c-6.003-7.133-3.781-18.416-0.913-26.956c-8.273,5.813-12.878,16.83-10.887,26.921c-2.589-3.639-6.188-7.968-9.649-10.656
			c5.96,15.424-4.797,18.866-4.797,29.623c-1.507-3.174-5.037-6.616-7.774-8.884c3.902,12.327-5.994,12.757-9.865,25.106
			c-0.003-2.56,0-5.12-0.003-7.68c-3.404,5.838-5.376,11.622-6.452,14.262c-1.608,3.947-3.013,6.024-9.466,12.909l0.168,0.038
			c-11.619,13.496-18.66,31.046-18.66,50.251c0,10.736,2.201,20.957,6.167,30.243c2.917,3.014,6.308,5.613,10.109,7.608
			c-3.676-6.25-5.074-11.966-5.088-19.307c-0.011-5.733,3.533-13.443,1.034-19.317c1.149,1.28,1.941,2.916,2.064,4.664
			c1.255-2.401,1.933-6.61,0.507-9.387c1.677,1.223,2.714,3.225,3.722,4.966c0.035-2.057,0.216-4.097-0.83-5.794
			c1.233,0.264,2.697,0.554,4.1,0.813c-1.546-2.152-3.808-3.521-6.152-4.783c3.529,0.342,7.359-2.158,10.453-3.445
			c-1.894-0.042-3.557-1.182-5.084-2.297c1.11,0.203,2.333,0.317,3.515,0.169c3.443-0.43,3.873-1.291,3.873-1.291l-2.582-3.012
			c14.199-2.151,21.567,4.13,21.567,4.13c16.298-8.002,30.074-12.826,44.565-6.26c-2.846-0.372-6.808,0.178-9.184,1.721
			c10.278-1.155,19.329,3.577,28.989,5.102c-0.049,0.021-0.094,0.05-0.143,0.071c-2.025,0.834-11.227,1.019-13.022-0.397
			c5.487,4.33,15.847,6.174,22.598,4.208c-2.383,2.333-5.038,2.361-8.086,3.066c2.737,1.163,7.701,1.559,11.669,0.82
			c-1.322,2.6-2.436,5.605-2.593,8.494c1.237-1.834,2.433-3.794,4.249-4.98c-1.289,4.205-1.266,8.03,0.088,12.271
			c0.532-2.371,2.074-4.495,3.795-6.174c-2.039,5.474,3.71,13.04,5.777,17.921c2.031,4.791,5.432,12.5,3.794,17.619
			c2.192-0.94,4.4-2.266,6.585-3.824c4.934-10.16,7.704-21.565,7.704-33.618C374.397,369.212,370.225,355.402,363.004,343.668z"/>
		<linearGradient id="SVGID_42_" gradientUnits="userSpaceOnUse" x1="297.3169" y1="232.167" x2="297.3169" y2="330.2742">
			<stop  offset="0" style="stop-color:#FBF5B7"/>
			<stop  offset="1" style="stop-color:#BF9250"/>
		</linearGradient>
		<path fill="url(#SVGID_42_)" d="M287.739,274.249c0,1.51,0.142,3.017,0.435,4.5c0.019,0.095,0.028,0.19,0.028,0.284
			c0,0.575-0.341,1.109-0.885,1.344c-0.634,0.272-1.372,0.065-1.771-0.497c-0.996-1.399-3.118-4.198-5.606-6.834
			c0.255,1.373,0.4,2.671,0.4,3.862c0,4.794-1.822,8.249-3.498,11.428c-1.587,3.009-3.085,5.852-3.085,9.663
			c0,0.684-0.475,1.278-1.142,1.428c-0.668,0.151-1.351-0.181-1.644-0.8c-0.902-1.9-2.583-3.835-4.195-5.451
			c0.022,0.331,0.089,0.694,0.089,1.008c0,4.568-2.34,7.377-4.782,10.307c-2.139,2.567-4.563,5.477-6.033,10.168
			c-0.216,0.689-0.904,1.118-1.618,1.009c-0.714-0.108-1.242-0.722-1.243-1.445c0,0,0-0.841,0-1.651
			c-1.245,2.682-2.224,5.151-2.94,7.009l-0.695,1.776c-1.673,4.108-3.076,6.233-9.754,13.356c0.014-0.015,0.195,0.006,0.209-0.008
			c-11.805,13.711-18.305,31.218-18.305,49.297c0,10.191,2.01,20.078,5.948,29.396c1.61,1.643,3.355,3.084,5.18,4.393
			c-1.971-4.664-2.857-9.46-2.87-15.243c0-0.009,0-0.019,0-0.029c0-2.187,0.458-4.521,0.943-6.994
			c0.487-2.49,0.985-5.029,0.985-7.391c0-1.541-0.212-3.006-0.777-4.332c-0.079-0.187-0.117-0.381-0.117-0.573
			c0-0.488,0.244-0.959,0.678-1.235c0.603-0.385,1.396-0.276,1.875,0.257c0.291,0.324,0.45,0.716,0.692,1.068
			c0.034-0.353,0.124-0.695,0.124-1.044c0-1.141-0.191-2.235-0.635-3.102c-0.11-0.212-0.163-0.44-0.163-0.667
			c0-0.418,0.179-0.828,0.513-1.114c0.516-0.44,1.266-0.47,1.814-0.069c0.262,0.191,0.424,0.467,0.659,0.684
			c-0.024-0.106-0.089-0.205-0.089-0.314c0-0.297,0.09-0.594,0.268-0.848c0.186-0.267,0.513-0.325,0.813-0.421
			c-0.777-0.505-1.566-0.997-2.368-1.428c-0.484-0.26-0.771-0.762-0.771-1.289c0-0.141,0.021-0.285,0.064-0.426
			c0.202-0.667,0.847-1.098,1.541-1.031c1.977,0.192,4.258-0.769,6.381-1.775c-0.764-0.443-1.46-0.921-2.016-1.328
			c-0.387-0.283-0.601-0.727-0.601-1.183c0-0.193,0.039-0.39,0.12-0.576c0.269-0.627,0.936-0.985,1.607-0.862
			c1.166,0.212,2.198,0.266,3.07,0.156c0.759-0.094,1.282-0.208,1.714-0.319c-0.675-0.788-1.353-1.578-1.353-1.578
			c-0.231-0.27-0.353-0.609-0.353-0.953c0-0.172,0.031-0.345,0.093-0.51c0.185-0.498,0.626-0.857,1.152-0.938
			c12.341-1.869,19.702,2.326,21.953,3.889c17.709-8.612,30.861-12.312,45.003-5.903c0.533,0.242,0.859,0.77,0.859,1.333
			c0,0.133-0.018,0.268-0.057,0.401c-0.048,0.169-0.184,0.274-0.28,0.41c3.081,0.568,6.087,1.375,9.033,2.202
			c3.227,0.906,6.563,1.843,9.874,2.365c0.648,0.102,1.077,0.658,1.153,1.311c0.007,0.049,0.009,0.1,0.009,0.15
			c0,0.6-0.416,1.179-0.976,1.409c-0.776,0.32-2.653,0.581-4.825,0.688c4.552,1.208,9.635,1.471,13.434,0.365
			c0.645-0.188,1.336,0.085,1.674,0.667c0.134,0.23,0.199,0.485,0.199,0.738c0,0.384-0.15,0.764-0.439,1.047
			c-0.788,0.77-1.611,1.277-2.442,1.693c1.629,0.044,3.272-0.02,4.733-0.292c0.547-0.103,1.106,0.116,1.439,0.562
			c0.193,0.258,0.291,0.566,0.291,0.876c0,0.227-0.052,0.454-0.158,0.665c-0.349,0.683-0.534,1.299-0.809,1.954
			c0.133-0.098,0.219-0.239,0.358-0.33c0.517-0.337,1.188-0.315,1.68,0.056c0.375,0.281,0.585,0.717,0.585,1.17
			c0,0.142-0.021,0.287-0.064,0.428c-0.588,1.922-0.883,3.745-0.883,5.567c0,0.587,0.088,1.18,0.149,1.77
			c0.634-0.923,1.304-1.846,2.194-2.715c0.491-0.479,1.248-0.553,1.821-0.18c0.425,0.276,0.665,0.744,0.665,1.228
			c0,0.169-0.029,0.343-0.092,0.51c-0.232,0.623-0.336,1.298-0.336,2.007c0,3.251,2.16,7.259,3.957,10.597l2.133,4.235l0.201,0.475
			c1.719,4.045,4.139,9.746,4.139,14.665c0,0.17-0.063,0.315-0.068,0.482c1.153-0.636,2.345-1.369,3.586-2.239
			c4.906-10.232,7.413-21.207,7.413-32.636c0-14.002-3.864-27.684-11.175-39.565c-3.976-7.315-8.709-14.354-14.107-20.99
			l-5.455-6.107c-0.016-0.019-3.336-4.129-3.336-4.129c-3.161-3.398-5.445-6.389-7.344-9.625c-0.189,0.446-0.518,0.833-0.993,0.928
			c-0.612,0.122-1.235-0.095-1.55-0.633l-1.393-2.37l-2.201-3.678c-2.072-3.243-4.57-5.723-7.212-8.326
			c0.011,0.052,0.027,0.104,0.039,0.156l0.354,1.638c0.021,0.103,0.032,0.207,0.032,0.31c0,0.53-0.285,1.034-0.763,1.294
			c-0.57,0.311-1.276,0.219-1.736-0.24l-0.604-0.604l-0.998-1.009c-3.184-3.338-11.534-12.887-11.534-21.078
			c0-0.119,0.024-0.232,0.028-0.35c-1.904,2.81-2.986,6.222-2.986,9.222c0,0.067,0.002,0.215,0.002,0.222
			c0,0.61-0.379,1.157-0.951,1.371c-0.581,0.216-1.232,0.045-1.632-0.429c-2.753-3.271-4.131-7.574-4.131-12.864
			c0-3.132,0.512-6.63,1.477-10.447C290.373,261.438,287.739,267.827,287.739,274.249z M302.83,361.967
			c0.056-0.005,0.108-0.002,0.164-0.009C302.939,361.958,302.885,361.962,302.83,361.967z M361.503,421.889
			c0.048-0.147,0.069-0.297,0.069-0.447c0-0.003-0.005-0.006-0.005-0.01C361.529,421.578,361.549,421.746,361.503,421.889z"/>
		<linearGradient id="SVGID_43_" gradientUnits="userSpaceOnUse" x1="370.4551" y1="359.5459" x2="362.9963" y2="361.8403">
			<stop  offset="0" style="stop-color:#FBF5B7"/>
			<stop  offset="1" style="stop-color:#BF9250"/>
		</linearGradient>
		<path fill="url(#SVGID_43_)" d="M363.004,343.668c-4.059-7.472-8.853-14.551-14.219-21.146c-1.752-2.155-3.621-4.196-5.53-6.195
			c-0.818-1.152-1.66-2.193-2.499-3.16c3.521,5.436,16.597,25.993,26.196,45.931c9.763,20.278,2.485,49.728,0.476,56.895
			c4.457-9.749,6.97-20.572,6.97-31.992C374.397,369.212,370.225,355.402,363.004,343.668z"/>
		<linearGradient id="SVGID_44_" gradientUnits="userSpaceOnUse" x1="218.9238" y1="368.9658" x2="225.8076" y2="371.8346">
			<stop  offset="0" style="stop-color:#FBF5B7"/>
			<stop  offset="1" style="stop-color:#BF9250"/>
		</linearGradient>
		<path fill="url(#SVGID_44_)" d="M224.531,370.715c3.54-15.928,11.149-31.263,13.741-36.207
			c-11.238,13.394-18.034,30.641-18.034,49.492c0,10.736,2.201,20.957,6.167,30.243c0.214,0.221,0.449,0.423,0.667,0.64
			C226.541,412.896,220.412,389.25,224.531,370.715z"/>
		<linearGradient id="SVGID_45_" gradientUnits="userSpaceOnUse" x1="292.1353" y1="244.2754" x2="292.1353" y2="346.0234">
			<stop  offset="0" style="stop-color:#FBF5B7"/>
			<stop  offset="1" style="stop-color:#BF9250"/>
		</linearGradient>
		<path fill="url(#SVGID_45_)" d="M342.029,340.349c2.129,0.34,4.161,0.743,6.27,1.365c-2.813-2.965-5.227-5.906-9.615-6.281
			c2.981-0.728,6.371-0.317,8.873-2.054c-3.045,0.051-6.182-0.79-8.873-2.27c1.699,0.027,3.397,0.021,5.097,0.02
			c-2.312-0.835-6.949-3.61-10.26-3.869c3.12-0.002,6.425,0.24,9.185-0.886c-2.482-0.232-4.762-0.927-7.033-2.149
			c1.137,0.011,3.174-0.368,3.365-0.397c-4.174-0.916-9.385-3.91-12.035-7.263c2.535,0.844,6.176,1.684,8.506,1.333
			c-4.656-1.936-6.518-6.442-10.592-8.767c1.483,0.662,2.891,1.552,4.214,2.475c-1.933-5.674-6.687-12.061-12.487-14.284
			c3.689,2.246,6.774,6.816,7.635,10.959c-1.896-1.438-4.169-2.567-6.332-3.679c2.201,4.279,4.873,7.028,8.42,10.102
			c-3.006-0.353-6.024-2.021-8.723-3.409c3.385,5.665,9.09,10.813,14.53,12.959c-3.08-0.415-6.092-1.416-9.063-2.407
			c4.291,4.438,7.975,8.212,12.926,10.571c-2.648-0.222-5.709-0.8-8.086-2.199c3.316,4.213,7.349,6.955,11.863,9.418
			c-2.027-0.042-4.367-0.456-6.388-1.01c3.978,2.572,13.042,6.679,12.874,12.296l3.012,7.315
			C350.012,350.979,347.97,345.287,342.029,340.349z M262.825,306.604l-0.43,1.291c-1.729,4.391-6.71,9.34-11.057,11.218
			c0.686-0.347,1.708-0.544,2.419-0.846c-1.544,3.04-4.12,6.665-6.713,8.925c0.455-0.242,1.075-0.496,1.505-0.75
			c-0.607,4.5-6.412,7.991-9.248,11.423c1.28-0.802,2.253-0.791,3.582-1.162c-3.366,3.555-6.032,7.046-8.054,11.487
			c2.633-2.86,6.634-6.42,10.226-8.044c-1.037,0.25-2.291,0.16-3.267,0.375c2.043-2.919,5.273-4.426,7.99-6.745
			c-1.354,0.504-2.763,0.771-4.226,0.795c2.334-1.323,5.77-3.317,8.089-6.042c-1.087,0.442-2.56,0.78-3.561,1.255
			c1.61-2.982,4.967-4.69,6.227-7.623c-1.246,0.846-2.927,1.378-4.516,1.245c3.195-2.229,7.225-5.088,8.733-8.926
			c-1.289,1.693-3.317,2.977-5.294,3.331C258.279,315.5,262.499,310.456,262.825,306.604z"/>
		<linearGradient id="SVGID_46_" gradientUnits="userSpaceOnUse" x1="294.019" y1="312.1978" x2="294.019" y2="394.8108">
			<stop  offset="0" style="stop-color:#FBF5B7"/>
			<stop  offset="1" style="stop-color:#BF9250"/>
		</linearGradient>
		<path fill="url(#SVGID_46_)" d="M352.709,381.643c-1.342,0.635-2.667,1.461-3.764,2.344c0.62-2.232,2.192-3.996,3.311-5.915
			c-1.638,0.614-3.432,1.612-4.268,3.28c-0.032-2.859,0.063-5.338,1.278-7.894c-1.063,0.586-2.36,0.809-3.333,1.514
			c0.262-1.437,0.947-2.797,1.956-3.889c-1.698,0.371-3.407,0.779-4.966,1.309c0.514-1.272,1.078-2.705,1.547-3.929
			c-3.106,0.939-6.43,2.086-9.755,1.723c1.778-0.839,5.226-2.787,6.482-3.343c-3.559-0.004-8.912,0.462-11.313-0.84
			c2.266-0.747,4.114-1.992,5.957-3.494c-3.457-0.242-6.978,0.416-10.476,0.482c1.579-1.134,3.345-2.263,4.43-3.947
			c-4.083,1.801-9.476,1.624-13.918,1.247c1.879-0.535,3.638-1.854,4.883-3.366c-6.425,1.22-12.888-0.523-19.21-0.839
			c-8.038-0.402-21.389-0.495-28.078,4.628c0.742-1.852,1.648-3.858,2.958-5.446c-2.435,1.267-5.026,2.583-7.088,4.562
			c0.07-1.321-0.222-2.815-0.15-4.14c-1.437,1.657-2.748,3.536-2.583,5.945c-3.122-2.247-7.434-3.98-11.401-3.849
			c2.38,1.368,4.875,2.759,6.7,4.69c-7.399-3.655-18.864-1.339-26.491,0.161c2.052,0.6,4.23,0.745,6.149,1.625
			c-2.428,1.158-5.386,1.368-7.848,2.164c1.654,0.241,3.044,0.647,4.548,1.397c-2.377,1.317-5.411,1.685-8.205,2.486
			c0.88,0.488,4.245,1.597,5.622,2.462c-2.346,0.516-4.611,1.264-7.118,0.924c0.932,1.801,2.55,3.656,4.108,4.668
			c-1.406,0.032-2.752-0.206-4.118-0.72c0.954,1.545,1.927,3.125,2.688,4.732c-1.127-0.6-2.429-1.05-3.55-1.814
			c3.331,5.792,2.862,14.894,2.862,21.565l0.873,0.35c0.018-5.727,3.521-13.396,1.031-19.247c1.149,1.28,1.941,2.916,2.064,4.664
			c1.255-2.401,1.933-6.61,0.507-9.387c1.677,1.223,2.714,3.225,3.722,4.966c0.035-2.057,0.216-4.097-0.83-5.794
			c1.233,0.264,2.697,0.554,4.1,0.813c-1.546-2.152-3.808-3.521-6.152-4.783c3.529,0.342,7.359-2.158,10.453-3.445
			c-1.894-0.042-3.557-1.182-5.084-2.297c1.11,0.203,2.333,0.317,3.515,0.169c3.443-0.43,3.873-1.291,3.873-1.291l-2.582-3.012
			c14.199-2.151,21.567,4.13,21.567,4.13c16.298-8.002,30.074-12.826,44.565-6.26c-2.846-0.372-6.808,0.178-9.184,1.721
			c10.278-1.155,19.329,3.577,28.989,5.102c-0.049,0.021-0.094,0.05-0.143,0.071c-2.025,0.834-11.227,1.019-13.022-0.397
			c5.487,4.33,15.847,6.174,22.598,4.208c-2.383,2.333-5.038,2.361-8.086,3.066c2.737,1.163,7.701,1.559,11.669,0.82
			c-1.322,2.6-2.436,5.605-2.593,8.494c1.237-1.834,2.433-3.794,4.249-4.98c-1.289,4.205-1.266,8.03,0.088,12.271
			c0.532-2.371,2.074-4.495,3.795-6.174c-2.039,5.474,3.71,13.04,5.777,17.921c0.002,0.004,0.003,0.008,0.005,0.012
			c1.341,0.343,2.683,0.657,4.026,0.892C355.215,402.243,348.639,386.01,352.709,381.643z"/>
		<linearGradient id="SVGID_47_" gradientUnits="userSpaceOnUse" x1="291.7085" y1="355.8428" x2="291.7085" y2="392.0973">
			<stop  offset="0" style="stop-color:#FBF5B7"/>
			<stop  offset="1" style="stop-color:#BF9250"/>
		</linearGradient>
		<path fill="url(#SVGID_47_)" d="M352.107,394.38c-1.506-2.367-1.291-9.682-1.291-9.682l-3.442,3.228c-1.29-2.582,0-9.682,0-9.682
			l-3.012,1.936l1.291-4.518h-7.099l4.302-2.582l-1.29-1.721c-7.314,1.721-15.275-1.076-15.275-1.076
			c3.442,0.215,7.745-2.151,7.745-2.151c-4.733-0.215-21.084-5.593-21.084-5.593l4.661-0.143l-4.302-2.295
			c-11.476-3.442-21.801-1.721-21.801-1.721c-15.275,1.721-23.736,7.601-23.736,7.601c-14.63-6.884-25.889-3.013-25.889-3.013
			s6.741,3.228,4.589,3.443c-2.151,0.215-6.454,0.645-6.454,0.645l2.582,3.442c-2.796,1.291-8.175,3.227-8.175,3.227l4.303,2.797
			h-2.582l0.86,2.582l-2.582-1.506c1.506,2.367-0.215,6.024-0.215,6.024c-1.076-1.291-3.228-0.431-3.228-0.431
			c1.291,1.506,1.936,8.821,1.936,8.821l0.088,0.073c0.468-3.093,0.594-6.169-0.55-8.859c1.149,1.28,1.941,2.916,2.064,4.664
			c1.255-2.401,1.933-6.61,0.507-9.387c1.677,1.223,2.714,3.225,3.722,4.966c0.035-2.057,0.216-4.097-0.83-5.794
			c1.233,0.264,2.697,0.554,4.1,0.813c-1.546-2.152-3.808-3.521-6.152-4.783c3.529,0.342,7.359-2.158,10.453-3.445
			c-1.894-0.042-3.557-1.182-5.084-2.297c1.11,0.203,2.333,0.317,3.515,0.169c3.443-0.43,3.873-1.291,3.873-1.291l-2.582-3.012
			c14.199-2.151,21.567,4.13,21.567,4.13c16.298-8.002,30.074-12.826,44.565-6.26c-2.846-0.372-6.808,0.178-9.184,1.721
			c10.278-1.155,19.329,3.577,28.989,5.102c-0.049,0.021-0.094,0.05-0.143,0.071c-2.025,0.834-11.227,1.019-13.022-0.397
			c5.487,4.33,15.847,6.174,22.598,4.208c-2.383,2.333-5.038,2.361-8.086,3.066c2.737,1.163,7.701,1.559,11.669,0.82
			c-1.322,2.6-2.436,5.605-2.593,8.494c1.237-1.834,2.433-3.794,4.249-4.98c-1.289,4.205-1.266,8.03,0.088,12.271
			c0.532-2.371,2.074-4.495,3.795-6.174c-1.131,3.037,0.137,6.717,1.842,10.226C352.49,395.511,352.443,394.907,352.107,394.38z"/>
		<linearGradient id="SVGID_48_" gradientUnits="userSpaceOnUse" x1="310.6836" y1="260.9077" x2="295.1939" y2="353.2716">
			<stop  offset="0" style="stop-color:#FBF5B7"/>
			<stop  offset="1" style="stop-color:#BF9250"/>
		</linearGradient>
		<path fill="url(#SVGID_48_)" d="M309.165,352.244c-3.105-4.515-9.763-5.747-14.317-8.422c-5.304-3.113-8.884-8.13-10.924-13.82
			c2.953,3.465,6.976,4.845,11.259,6.04c-7.148-2.802-9.324-11.675-10.071-18.501c0.899,1.693,3.486,4.299,5.766,5.785
			c-4.193-4.812-4.903-11.776-4.804-17.906c0.762,1.439,2.378,3.054,3.759,4.191c-3.091-5.816-1.743-11.802-0.905-17.912
			c0.464,1.484,0.572,3.835,1.914,5.331c-0.241-2.195,1.087-7.055,2.7-9.253c-0.749,5.475-1.847,10.782,0.445,16.199
			c-1.504-0.976-2.713-2.271-3.816-3.635c0.236,4.525,2.536,11.005,6.112,13.862c-2.169-0.636-4.333-1.8-6.25-3.029
			c0.089,5.945,5.415,10.001,8.821,14.005c-2.153-0.673-4.603-1.197-6.701-2.095c3.145,5.375,8.973,8.105,13.764,11.271
			c-3.187-0.407-6.473-1.567-9.556-1.886c2.908,2.987,7.197,5.118,10.855,6.917c-4.348,0.746-8.846-0.489-13.197-0.684
			c6.887,4.976,14.035,8.36,18.035,16.264L309.165,352.244z"/>
		<linearGradient id="SVGID_49_" gradientUnits="userSpaceOnUse" x1="273.1934" y1="254.6191" x2="257.7035" y2="346.9837">
			<stop  offset="0" style="stop-color:#FBF5B7"/>
			<stop  offset="1" style="stop-color:#BF9250"/>
		</linearGradient>
		<path fill="url(#SVGID_49_)" d="M245.42,350.711c3.334-3.712,7.079-3.98,10.379-5.831c3.843-2.154,7.611-6.263,10.902-11.181
			c-2.839,2.776-5.357,3.517-7.929,4.055c4.616-1.634,9.256-9.434,12.371-15.553c-1.122,1.426-3.435,3.466-5.144,4.526
			c3.984-3.842,7.138-10.092,9.561-15.686c-0.953,1.212-2.392,2.475-3.524,3.334c3.854-4.9,5.608-10.522,7.661-16.193
			c-0.823,1.29-1.823,3.416-3.081,4.607c1.002-1.968,2.313-6.563,2.413-8.771c-1.841,5.08-3.447,10.052-6.747,14.69
			c1.126-0.693,2.237-1.718,3.326-2.819c-1.938,4.092-5.673,9.697-8.569,11.838c1.313-0.302,2.84-1.083,4.271-1.956
			c-2.44,5.399-6.674,8.409-9.949,11.619c1.322-0.337,2.728-0.5,4.113-1.048c-3.701,4.491-7.646,6.229-11.258,8.497
			c1.72,0.04,3.788-0.596,5.423-0.49c-2.623,2.345-5.576,3.735-8.085,4.905c1.82,1.234,4.513,0.689,6.714,1.071
			c-5.365,3.646-10.217,5.81-15.354,12.493L245.42,350.711z"/>
		<linearGradient id="SVGID_50_" gradientUnits="userSpaceOnUse" x1="290.5132" y1="300.8086" x2="290.5132" y2="356.1365">
			<stop  offset="0" style="stop-color:#FBF5B7"/>
			<stop  offset="1" style="stop-color:#BF9250"/>
		</linearGradient>
		<path fill="url(#SVGID_50_)" d="M296.764,336.195c-1.216-2.37-9.167-11.568-3.12-13.66c-1.648-2.121-6.129-11.715-1.602-12.145
			c-2.962-5.858-1.013-12.002,0.503-17.824c-0.917,2.025-2.565,4.688-3.042,6.724c-0.625,2.667,1.239,5.581,0.881,7.722
			c-0.576,3.437-2.649,3.834-1.647,8.197c0.562,2.449,1.764,4.601,2.754,7.01c-0.482,0.007-1.299,0.412-1.925,0.369
			c-0.276,3.745,5.89,13.751,2.12,14.975c0.585,1.354,1.663,2.607,2.979,3.463l2.582,2.151
			C295.329,341.467,293.535,337.378,296.764,336.195z M341.178,341.713c-0.594-1.792-1.262-3.909-2.234-5.679
			c0.639,0.403,1.472,0.556,2.149,0.945c-1.614-4.538-5.05-8.579-8.102-12.241c0.396-0.106,0.743-0.012,1.121-0.148
			c-2.429-1.894-7.009-5.083-6.671-8.447c0.969-0.05,1.697-0.719,2.797-0.569c-1.205-1.773-3.774-4.307-1.205-5.627
			c-1.533-2.855-3.927-5.366-5.539-8.078l-3.873-3.012c1.536,2.878,13.968,19.145,3.592,19.341
			c4.814,4.032,18.455,13.03,14.867,20.673C339.103,339.725,340.15,340.686,341.178,341.713z M270.193,315.545
			c2.355,1.963-3.709,7.439-5.164,9.466c2.917,2.272-5.758,9.166-7.301,11.603c0.406,0.224,0.716,0.409,1.148,0.615
			c-0.241,2.895-1.659,5.693-4.112,7.402c2.444-1.363,5.514-2.798,6.283-5.252c-0.682-0.193-1.285-0.771-1.716-0.934
			c0.74-0.521,1.161-1.621,2.028-2.15c-0.31-0.194-0.766-0.311-1.04-0.505c0.339-3.366,6.072-6.009,7.617-9.296
			c-2.732-2.083,4.601-8.745,5.58-11.198c-2.638-1.411,1.785-7.318,3.022-9.478c-1.808-0.934-1.073-2.688,0.485-3.946v-1.291
			c-1.677,2.148-2.282,4.875-3.713,6.897C274.76,308.764,271.422,313.769,270.193,315.545z M246.361,332.391
			c-0.758,0.597-1.576,1.134-2.298,1.634c0.297,2.32-1.971,5.327-4.214,6.884c2.497-1.608,4.991-4.087,6.593-6.263
			c-0.529-0.03-1.105-0.127-1.633-0.149C245.129,333.791,245.69,333.089,246.361,332.391z M256.371,317.361l0.861-1.721
			c-2.108,2.987-6.694,6.312-8.088,9.563c-0.655,1.525,0.643,2.889-0.841,5.184c-0.154,0.238-0.361,0.455-0.554,0.676
			c1.535-1.378,3.249-2.754,4.275-4.15c-0.512-0.005-1.104-0.146-1.621-0.15C250.895,324.268,255.575,317.415,256.371,317.361z"/>
		<linearGradient id="SVGID_51_" gradientUnits="userSpaceOnUse" x1="296.4902" y1="241.1396" x2="285.0146" y2="285.8922">
			<stop  offset="0" style="stop-color:#FBF5B7"/>
			<stop  offset="1" style="stop-color:#BF9250"/>
		</linearGradient>
		<path fill="url(#SVGID_51_)" d="M297.535,252.533c0,0-12.254,6.683-11.241,25.54c0.015,0.281,0.033,0.564,0.054,0.849
			c0,0-0.61,5.522-2.654,8.104c0,0-0.968,3.55-0.215,4.841l-1.184-0.968c0,0,0.43,4.84-0.322,7.637
			c-0.753,2.797-2.151,5.486-2.151,5.486l0.43,4.195l-1.506-1.721c0,0,0.753,0.645,0,3.227c-0.753,2.582-1.937,3.442-1.937,6.239
			c0,0-0.412-1.317-0.443-2.151c-0.004-0.119,0-0.229,0.013-0.322c0.108-0.753-1.291,2.582-1.076,4.625
			c0.215,2.044,0.538,4.841,0.538,4.841s-1.398-0.968-1.398-2.151c0,0-0.86,1.829-0.537,4.411c0.322,2.582-0.753,5.485-2.151,8.067
			c0,0,0.645-1.29,0.107-3.011c0,0-0.645,2.044-1.721,3.119c-1.075,1.076-2.259,4.733-2.043,8.283l0.323,1.937
			c0,0-1.291-1.075-1.721-2.582c0,0-1.613,5.916,0.753,9.574c0,0-0.861-3.873-0.215-4.625c0.645-0.753,2.689,1.936,2.689,1.936
			s-1.184-6.669,0.323-9.359c1.506-2.688,2.474,1.184,2.474,1.184s-0.107-3.334-0.968-4.625l1.828,0.968c0,0-0.43-3.227,0.646-4.841
			c1.076-1.613,1.398-4.195,1.506-6.238c0,0,0.968,1.183,0.968,3.55c0,0,1.291-2.583,1.184-5.164
			c-0.108-2.582-1.292-3.55-0.215-5.055c1.076-1.506,1.937,0.322,1.937,0.322s-1.506-2.582-0.753-4.841
			c0.753-2.259,2.474-1.398,2.474-1.398s0.538-4.303-0.215-6.884c-0.752-2.582,2.905-5.163,2.905-5.163s-1.076-2.044-0.646-3.658
			c0.43-1.613,1.398-0.322,1.398-0.322s0.323-2.043,0.215-3.98c-0.107-1.937-0.86-2.797,0.646-5.271
			c1.506-2.474,3.227-3.98,3.873-7.422c0.645-3.442-2.689-16.351,8.283-27.322L297.535,252.533z"/>
		<linearGradient id="SVGID_52_" gradientUnits="userSpaceOnUse" x1="314.2295" y1="247.4185" x2="312.5083" y2="304.2169">
			<stop  offset="0" style="stop-color:#FBF5B7"/>
			<stop  offset="1" style="stop-color:#BF9250"/>
		</linearGradient>
		<path fill="url(#SVGID_52_)" d="M297.247,284.946c-1.69,5.377,3.421,12.24,5.665,17.01c-1.936-1.123-3.707-2.544-5.145-4.204
			c1.72,4.902,2.733,8.825,6.151,13.064c-1.756-0.717-3.707-1.532-5.479-2.29c1.146,2.847,3.144,5.535,5.617,7.312
			c-1.465-0.771-3.43-1.069-4.914-1.561c3.64,4.172,7.337,5.633,11.671,8.56c-3.183,0.286-5.993-0.663-8.917-1.664
			c1.557,1.709,3.848,2.893,6.078,3.959c-1.205-0.161-2.516,0.154-3.656,0.086c4.094,3.481,7.975,5.013,12.836,6.8
			c-1.796-0.077-3.596,0.024-5.39-0.057c1.954,0.854,3.981,1.725,5.92,2.307c-1.938,0.791-4.22,0.671-6.465,0.56
			c5.335,2.726,11.321,4.284,15.632,8.691c-1.786-2.007-4.219-3.15-6.023-4.991c2.423,0.776,4.963,1.933,6.91,3.586
			c-1.986-3.28-5.228-5.653-7.93-8.318c3.131,0.989,6.27,2.351,8.762,4.559c-3.642-4.714-8.433-9.541-13.621-12.419
			c1.857,0.199,4.051,0.682,5.744,1.377c-1.261-1.138-2.94-2.629-4.344-3.857c1.785,0.78,3.505,1.915,5.049,3.171
			c-3.039-6.295-11.031-8.525-14.18-14.8c2.218,1.728,4.862,2.644,7.319,3.871c-3.287-2.334-6.677-4.491-8.454-8.305
			c2.127,1.384,4.832,2.116,7.152,2.697c-2.091-1.257-4.566-3.04-6.046-5.436c1.767,0.88,3.594,1.494,5.501,1.849
			c-7.904-5.517-14.392-15.93-16.591-24.999L297.247,284.946z"/>
	</g>
</g>
</svg>
